<svg xmlns="http://www.w3.org/2000/svg" width="24" height="24" viewBox="0 0 24 24"><defs><style>.a{fill:none;opacity:0;}.b{fill:#f0f0f0;}.c{fill:#d80027;}</style></defs><g transform="translate(-822 -236)"><rect class="a" width="24" height="24" transform="translate(822 236)"/><g transform="translate(824 238)"><circle class="b" cx="10" cy="10" r="10" transform="translate(0 0)"/><path class="c" d="M19.915,8.7H11.3V.085A10.092,10.092,0,0,0,8.7.085V8.7H.085a10.092,10.092,0,0,0,0,2.609H8.7v8.611a10.092,10.092,0,0,0,2.609,0V11.3h8.611a10.092,10.092,0,0,0,0-2.609Z" transform="translate(0 0)"/><path class="c" d="M91.652,90.347v-1.3h-1.3v1.3h-1.3v1.3h1.3v1.3h1.3v-1.3h1.3v-1.3Z" transform="translate(-85.565 -85.565)"/><path class="c" d="M325.392,90.347v-1.3h-1.3v1.3h-1.3v1.3h1.3v1.3h1.3v-1.3h1.3v-1.3Z" transform="translate(-310.174 -85.565)"/><path class="c" d="M91.652,324.087v-1.3h-1.3v1.3h-1.3v1.3h1.3v1.3h1.3v-1.3h1.3v-1.3Z" transform="translate(-85.565 -310.174)"/><path class="c" d="M325.392,324.087v-1.3h-1.3v1.3h-1.3v1.3h1.3v1.3h1.3v-1.3h1.3v-1.3Z" transform="translate(-310.174 -310.174)"/></g></g></svg>