<svg xmlns="http://www.w3.org/2000/svg" width="24" height="24" viewBox="0 0 24 24"><defs><style>.a{fill:none;opacity:0;}.b{fill:#fff;fill-rule:evenodd;}</style></defs><g transform="translate(-552 -96)"><rect class="a" width="24" height="24" transform="translate(552 96)"/><path class="b" d="M44.333,18A11.479,11.479,0,0,0,56,6.493V5.945a8.961,8.961,0,0,0,2-2.082,9.322,9.322,0,0,1-2.333.658,4.275,4.275,0,0,0,1.778-2.192,10.276,10.276,0,0,1-2.556.986,3.993,3.993,0,0,0-3-1.315,4.146,4.146,0,0,0-4.111,4.055,2.109,2.109,0,0,0,.111.877,11.539,11.539,0,0,1-8.444-4.274,4.153,4.153,0,0,0-.556,2.082,4.336,4.336,0,0,0,1.778,3.4,3.784,3.784,0,0,1-1.889-.548h0a4.021,4.021,0,0,0,3.333,3.945,3.471,3.471,0,0,1-1.111.11,1.915,1.915,0,0,1-.778-.11,4.2,4.2,0,0,0,3.889,2.849A8.463,8.463,0,0,1,39,16.137a3.117,3.117,0,0,1-1-.11A10.587,10.587,0,0,0,44.333,18" transform="translate(516 98)"/></g></svg>